<?xml version="1.0" encoding="UTF-8" standalone="no"?>
<!-- Created with Inkscape (http://www.inkscape.org/) -->

<svg
   width="108.67597mm"
   height="22.886826mm"
   viewBox="0 0 108.67597 22.886826"
   version="1.1"
   id="svg1"
   xml:space="preserve"
   xmlns="http://www.w3.org/2000/svg"
   xmlns:svg="http://www.w3.org/2000/svg"><defs
     id="defs1" /><g
     id="layer1"
     transform="translate(-7.2887971,-56.412372)"><g
       id="g3"><g
         id="g1"
         transform="translate(18.294881,-22.522383)"><text
           xml:space="preserve"
           style="font-style:normal;font-variant:normal;font-weight:normal;font-stretch:normal;font-size:13.97px;font-family:Clarendon;-inkscape-font-specification:'Clarendon, Normal';font-variant-ligatures:normal;font-variant-caps:normal;font-variant-numeric:normal;font-variant-east-asian:normal;text-align:start;writing-mode:lr-tb;direction:ltr;text-anchor:start;fill:#734f96;fill-opacity:1;stroke:#734f96;stroke-width:0;stroke-dasharray:none;stroke-opacity:1"
           x="-9.8350792"
           y="93.60553"
           id="text1-8-7"><tspan
             id="tspan1-8-1"
             style="font-style:normal;font-variant:normal;font-weight:normal;font-stretch:normal;font-size:13.97px;font-family:Clarendon;-inkscape-font-specification:'Clarendon, Normal';font-variant-ligatures:normal;font-variant-caps:normal;font-variant-numeric:normal;font-variant-east-asian:normal;fill:#734f96;fill-opacity:1;stroke:#734f96;stroke-width:0;stroke-dasharray:none;stroke-opacity:1"
             x="-9.8350792"
             y="93.60553">Kohonen</tspan></text><g
           id="g2"
           transform="matrix(0.005715,0,0,0.005715,58.075375,81.966749)"><g
             id="layer101"
             style="fill:#734f96;stroke:none"
             transform="translate(0.142,-7.901)"><path
               d="M 374,2558.203 C 223.231,2558.253 -0.142,2295.04 -0.142,2181.664 v -1802 C -0.142,227.08 263.836,7.893 377.76,7.901 l 1805.356,0.127 c 155.783,0.01 367.163,254.122 367.163,375.222 v 1803.768 c 0,177.696 -238.056,370.532 -372.282,370.577 z"
               id="path2" /></g><g
             id="layer102"
             style="fill:#ffffff;stroke:none"
             transform="translate(0.142,-7.901)"><path
               d="m 350,2062 98,-6 c 199,-13 197,-12 207,-168 9,-148 -2.337,-1306.766 -9,-1330 -10.975,-38.27 -52.156,-60.281 -175,-60.25 L 350,497 V 280 h 1860 v 831 l -219,-3.25 c -2,-2 -8,-60.75 -12,-114.75 -23,-254 -80,-400.142 -190,-457.142 -58,-30 -148.565,-38.842 -438.652,-38.93 L 1080,497 v 623 h 48 c 81,-1 184,-20 218,-41 44,-27 81,-105 94,-199 9.8,-68.603 17.362,-119.933 17.362,-119.933 L 1670,760 v 990 h -220 v -39 c 0,-64 -30,-213 -51,-258 -33,-69 -89,-93 -248,-108 l -73,-7 4,321 c 3,305 5,322 24,348 24,32 50,38 209,50 l 106.727,5.077 L 1421,2280 H 350 Z"
               id="path5" /></g></g><text
           xml:space="preserve"
           style="font-style:normal;font-variant:normal;font-weight:normal;font-stretch:normal;font-size:13.97px;font-family:Clarendon;-inkscape-font-specification:'Clarendon, Normal';font-variant-ligatures:normal;font-variant-caps:normal;font-variant-numeric:normal;font-variant-east-asian:normal;text-align:start;writing-mode:lr-tb;direction:ltr;text-anchor:start;fill:#734f96;fill-opacity:1;stroke:#734f96;stroke-width:0;stroke-dasharray:none;stroke-opacity:1"
           x="73.281265"
           y="94.305244"
           id="text1-8-76"><tspan
             id="tspan1-8-14"
             style="font-style:normal;font-variant:normal;font-weight:normal;font-stretch:normal;font-size:13.97px;font-family:Clarendon;-inkscape-font-specification:'Clarendon, Normal';font-variant-ligatures:normal;font-variant-caps:normal;font-variant-numeric:normal;font-variant-east-asian:normal;fill:#734f96;fill-opacity:1;stroke:#734f96;stroke-width:0;stroke-dasharray:none;stroke-opacity:1"
             x="73.281265"
             y="94.305244">08</tspan></text></g><rect
         style="fill:none;stroke:#734f96;stroke-width:0;stroke-linecap:round;stroke-linejoin:round"
         id="rect2"
         width="108.67597"
         height="22.886822"
         x="7.2887974"
         y="56.412373" /></g></g></svg>
